<svg width="28" height="32" viewBox="0 0 28 32" fill="none" xmlns="http://www.w3.org/2000/svg">
<path fill-rule="evenodd" clip-rule="evenodd" d="M13.9066 12.8161C15.5699 12.8161 17.165 12.1554 18.3412 10.9793C19.5173 9.80316 20.178 8.208 20.178 6.54472C20.178 4.88144 19.5173 3.28629 18.3412 2.11017C17.165 0.934051 15.5699 0.273315 13.9066 0.273315C12.2433 0.273315 10.6482 0.934051 9.47205 2.11017C8.29593 3.28629 7.63519 4.88144 7.63519 6.54472C7.63519 8.208 8.29593 9.80316 9.47205 10.9793C10.6482 12.1554 12.2433 12.8161 13.9066 12.8161ZM5.01976 31.6304C1.84609 31.6304 -0.827304 28.9625 0.387208 26.0304V26.0304C1.1226 24.255 2.20048 22.6419 3.55931 21.2831C4.91813 19.9242 6.53129 18.8464 8.30669 18.111C10.0821 17.3756 11.9849 16.9971 13.9066 16.9971C15.8283 16.9971 17.7311 17.3756 19.5065 18.111C21.2819 18.8464 22.8951 19.9242 24.2539 21.2831C25.6127 22.6419 26.6906 24.255 27.426 26.0304V26.0304C28.6405 28.9625 25.9671 31.6304 22.7934 31.6304H5.01976Z" fill="white"/>
</svg>
