<svg width="48" height="41" viewBox="0 0 48 41" fill="none" xmlns="http://www.w3.org/2000/svg">
<path d="M47.0052 6.18418L41.1564 0.308263C40.9599 0.110912 40.6931 0 40.4148 0C40.1366 0 39.8697 0.110912 39.6732 0.308263L14.9707 25.071C14.7742 25.2684 14.5073 25.3793 14.2291 25.3793C13.9508 25.3793 13.684 25.2684 13.4875 25.071L7.63867 19.1951C7.44217 18.9978 7.17535 18.8869 6.89709 18.8869C6.61884 18.8869 6.35202 18.9978 6.15551 19.1951L0.306673 25.071C-0.102224 25.4808 -0.102224 26.145 0.306673 26.5547L13.4875 39.7608C13.684 39.9582 13.9508 40.0691 14.2291 40.0691C14.5073 40.0691 14.7742 39.9582 14.9707 39.7608L47.0052 7.65315C47.4044 7.24515 47.4044 6.59218 47.0052 6.18418Z" fill="#8BC7FF"/>
</svg>
