<svg width="40" height="41" viewBox="0 0 40 41" fill="none" xmlns="http://www.w3.org/2000/svg">
<path d="M23.8316 20.3987C23.7533 20.3204 23.7092 20.2141 23.7092 20.1032C23.7092 19.9923 23.7533 19.886 23.8316 19.8077L39.2687 4.34514C40.2448 3.36596 40.2436 1.77951 39.2662 0.801709C38.2887 -0.176091 36.705 -0.17497 35.729 0.804213L20.2936 16.2601C20.2154 16.3386 20.1093 16.3827 19.9986 16.3827C19.8879 16.3827 19.7818 16.3386 19.7036 16.2601L4.26825 0.804213C3.29216 -0.174048 1.70925 -0.174422 0.732708 0.803379C-0.243835 1.78118 -0.244208 3.36688 0.731874 4.34514L16.1656 19.8077C16.244 19.886 16.288 19.9923 16.288 20.1032C16.288 20.2141 16.244 20.3204 16.1656 20.3987L0.731874 35.8629C0.10046 36.4957 -0.145976 37.4179 0.085395 38.2821C0.316767 39.1463 0.990795 39.8212 1.85358 40.0526C2.71637 40.284 3.63683 40.0367 4.26825 39.4038L19.7036 23.9396C19.7818 23.8611 19.8879 23.817 19.9986 23.817C20.1093 23.817 20.2154 23.8611 20.2936 23.9396L35.729 39.4038C36.705 40.3821 38.288 40.3825 39.2645 39.4047C40.241 38.4269 40.2414 36.8412 39.2653 35.8629L23.8316 20.3987Z" fill="#2B2B2B"/>
</svg>
