<svg width="75" height="74" viewBox="0 0 75 74" fill="none" xmlns="http://www.w3.org/2000/svg">
<path d="M0 3.3125C0 2.66603 0.2601 2.04605 0.72308 1.58893C1.18606 1.13181 1.814 0.875 2.46875 0.875H9.875C10.4257 0.87515 10.9605 1.05708 11.3944 1.39187C11.8283 1.72666 12.1364 2.19507 12.2697 2.72262L14.2694 10.625H71.5938C71.9563 10.6253 72.3142 10.7045 72.6422 10.8568C72.9703 11.0091 73.2603 11.2309 73.4917 11.5064C73.7231 11.7819 73.8902 12.1043 73.9812 12.4508C74.0722 12.7972 74.0848 13.1592 74.0181 13.511L66.6118 52.511C66.5059 53.0696 66.2057 53.574 65.763 53.9372C65.3203 54.3004 64.7631 54.4995 64.1875 54.5H19.75C19.1744 54.4995 18.6172 54.3004 18.1745 53.9372C17.7318 53.574 17.4316 53.0696 17.3257 52.511L9.92438 13.5841L7.94938 5.75H2.46875C1.814 5.75 1.18606 5.49319 0.72308 5.03607C0.2601 4.57895 0 3.95897 0 3.3125ZM15.3161 15.5L21.7991 49.625H62.1384L68.6214 15.5H15.3161ZM24.6875 54.5C22.0685 54.5 19.5567 55.5272 17.7048 57.3557C15.8529 59.1842 14.8125 61.6641 14.8125 64.25C14.8125 66.8359 15.8529 69.3158 17.7048 71.1443C19.5567 72.9728 22.0685 74 24.6875 74C27.3065 74 29.8183 72.9728 31.6702 71.1443C33.5221 69.3158 34.5625 66.8359 34.5625 64.25C34.5625 61.6641 33.5221 59.1842 31.6702 57.3557C29.8183 55.5272 27.3065 54.5 24.6875 54.5ZM59.25 54.5C56.631 54.5 54.1192 55.5272 52.2673 57.3557C50.4154 59.1842 49.375 61.6641 49.375 64.25C49.375 66.8359 50.4154 69.3158 52.2673 71.1443C54.1192 72.9728 56.631 74 59.25 74C61.869 74 64.3808 72.9728 66.2327 71.1443C68.0846 69.3158 69.125 66.8359 69.125 64.25C69.125 61.6641 68.0846 59.1842 66.2327 57.3557C64.3808 55.5272 61.869 54.5 59.25 54.5ZM24.6875 59.375C25.997 59.375 27.2529 59.8886 28.1788 60.8029C29.1048 61.7171 29.625 62.9571 29.625 64.25C29.625 65.5429 29.1048 66.7829 28.1788 67.6971C27.2529 68.6114 25.997 69.125 24.6875 69.125C23.378 69.125 22.1221 68.6114 21.1962 67.6971C20.2702 66.7829 19.75 65.5429 19.75 64.25C19.75 62.9571 20.2702 61.7171 21.1962 60.8029C22.1221 59.8886 23.378 59.375 24.6875 59.375ZM59.25 59.375C60.5595 59.375 61.8154 59.8886 62.7413 60.8029C63.6673 61.7171 64.1875 62.9571 64.1875 64.25C64.1875 65.5429 63.6673 66.7829 62.7413 67.6971C61.8154 68.6114 60.5595 69.125 59.25 69.125C57.9405 69.125 56.6846 68.6114 55.7587 67.6971C54.8327 66.7829 54.3125 65.5429 54.3125 64.25C54.3125 62.9571 54.8327 61.7171 55.7587 60.8029C56.6846 59.8886 57.9405 59.375 59.25 59.375Z" fill="#48A7FF"/>
</svg>
