<svg width="50" height="50" viewBox="0 0 50 50" fill="none" xmlns="http://www.w3.org/2000/svg">
<path d="M0 1.96875C0 1.52949 0.174497 1.10821 0.485104 0.797604C0.795712 0.486997 1.21699 0.3125 1.65625 0.3125H6.625C6.99445 0.312602 7.35325 0.436224 7.64436 0.663707C7.93547 0.89119 8.14216 1.20947 8.23156 1.56794L9.57313 6.9375H48.0313C48.2744 6.93773 48.5146 6.9915 48.7347 7.09501C48.9547 7.19852 49.1493 7.34922 49.3046 7.53641C49.4598 7.7236 49.5719 7.94268 49.633 8.17809C49.694 8.4135 49.7024 8.65946 49.6577 8.8985L44.6889 35.3985C44.6179 35.778 44.4165 36.1208 44.1195 36.3676C43.8225 36.6144 43.4486 36.7496 43.0625 36.75H13.25C12.8639 36.7496 12.49 36.6144 12.193 36.3676C11.896 36.1208 11.6946 35.778 11.6236 35.3985L6.65813 8.94819L5.33313 3.625H1.65625C1.21699 3.625 0.795712 3.4505 0.485104 3.1399C0.174497 2.82929 0 2.40801 0 1.96875ZM10.2754 10.25L14.6247 33.4375H41.6878L46.0371 10.25H10.2754ZM16.5625 36.75C14.8054 36.75 13.1203 37.448 11.8779 38.6904C10.6355 39.9328 9.9375 41.6179 9.9375 43.375C9.9375 45.1321 10.6355 46.8172 11.8779 48.0596C13.1203 49.302 14.8054 50 16.5625 50C18.3196 50 20.0047 49.302 21.2471 48.0596C22.4895 46.8172 23.1875 45.1321 23.1875 43.375C23.1875 41.6179 22.4895 39.9328 21.2471 38.6904C20.0047 37.448 18.3196 36.75 16.5625 36.75ZM39.75 36.75C37.9929 36.75 36.3078 37.448 35.0654 38.6904C33.823 39.9328 33.125 41.6179 33.125 43.375C33.125 45.1321 33.823 46.8172 35.0654 48.0596C36.3078 49.302 37.9929 50 39.75 50C41.5071 50 43.1922 49.302 44.4346 48.0596C45.677 46.8172 46.375 45.1321 46.375 43.375C46.375 41.6179 45.677 39.9328 44.4346 38.6904C43.1922 37.448 41.5071 36.75 39.75 36.75ZM16.5625 40.0625C17.441 40.0625 18.2836 40.4115 18.9048 41.0327C19.526 41.6539 19.875 42.4965 19.875 43.375C19.875 44.2535 19.526 45.0961 18.9048 45.7173C18.2836 46.3385 17.441 46.6875 16.5625 46.6875C15.684 46.6875 14.8414 46.3385 14.2202 45.7173C13.599 45.0961 13.25 44.2535 13.25 43.375C13.25 42.4965 13.599 41.6539 14.2202 41.0327C14.8414 40.4115 15.684 40.0625 16.5625 40.0625ZM39.75 40.0625C40.6285 40.0625 41.4711 40.4115 42.0923 41.0327C42.7135 41.6539 43.0625 42.4965 43.0625 43.375C43.0625 44.2535 42.7135 45.0961 42.0923 45.7173C41.4711 46.3385 40.6285 46.6875 39.75 46.6875C38.8715 46.6875 38.0289 46.3385 37.4077 45.7173C36.7865 45.0961 36.4375 44.2535 36.4375 43.375C36.4375 42.4965 36.7865 41.6539 37.4077 41.0327C38.0289 40.4115 38.8715 40.0625 39.75 40.0625Z" fill="#FAFAFA"/>
</svg>
