<svg width="26" height="36" viewBox="0 0 26 36" fill="none" xmlns="http://www.w3.org/2000/svg">
<path d="M25.0314 12.7637C25.0314 11.1592 24.7154 9.5704 24.1014 8.08802C23.4873 6.60564 22.5873 5.25872 21.4528 4.12416C20.3182 2.98959 18.9713 2.08961 17.4889 1.47559C16.0065 0.861565 14.4177 0.545532 12.8132 0.545532C11.2087 0.545532 9.61991 0.861565 8.13753 1.47559C6.65515 2.08961 5.30823 2.98959 4.17367 4.12416C3.03911 5.25872 2.13912 6.60564 1.5251 8.08802C0.911079 9.5704 0.595047 11.1592 0.595047 12.7637C0.595047 15.1847 1.31068 17.4363 2.52377 19.3354H2.50981C6.62908 25.7848 12.8132 35.4546 12.8132 35.4546L23.1166 19.3354H23.1044C24.3619 17.3741 25.0306 15.0934 25.0314 12.7637V12.7637ZM12.8132 18.0001C11.4245 18.0001 10.0926 17.4484 9.11056 16.4664C8.12855 15.4844 7.57686 14.1525 7.57686 12.7637C7.57686 11.3749 8.12855 10.0431 9.11056 9.06105C10.0926 8.07904 11.4245 7.52735 12.8132 7.52735C14.202 7.52735 15.5339 8.07904 16.5159 9.06105C17.4979 10.0431 18.0496 11.3749 18.0496 12.7637C18.0496 14.1525 17.4979 15.4844 16.5159 16.4664C15.5339 17.4484 14.202 18.0001 12.8132 18.0001Z" fill="white"/>
</svg>
