<svg width="36" height="32" viewBox="0 0 36 32" fill="none" xmlns="http://www.w3.org/2000/svg">
<path d="M31.7768 0.290894H3.84955C2.92371 0.290894 2.03578 0.658685 1.38111 1.31336C0.726434 1.96803 0.358643 2.85596 0.358643 3.7818V10.7636C0.358643 11.6895 0.726434 12.5774 1.38111 13.2321C2.03578 13.8867 2.92371 14.2545 3.84955 14.2545H31.7768C32.7027 14.2545 33.5906 13.8867 34.2453 13.2321C34.9 12.5774 35.2677 11.6895 35.2677 10.7636V3.7818C35.2677 2.85596 34.9 1.96803 34.2453 1.31336C33.5906 0.658685 32.7027 0.290894 31.7768 0.290894ZM23.0496 7.27271C23.0496 8.2367 22.2681 9.01817 21.3041 9.01817C20.3401 9.01817 19.5586 8.2367 19.5586 7.27271C19.5586 6.30872 20.3401 5.52726 21.3041 5.52726C22.2681 5.52726 23.0496 6.30872 23.0496 7.27271ZM30.0314 7.27271C30.0314 8.2367 29.2499 9.01817 28.2859 9.01817C27.3219 9.01817 26.5405 8.2367 26.5405 7.27271C26.5405 6.30872 27.3219 5.52726 28.2859 5.52726C29.2499 5.52726 30.0314 6.30872 30.0314 7.27271ZM31.7768 17.7454H3.84955C2.92371 17.7454 2.03578 18.1132 1.38111 18.7679C0.726434 19.4226 0.358643 20.3105 0.358643 21.2363V28.2182C0.358643 29.144 0.726434 30.0319 1.38111 30.6866C2.03578 31.3413 2.92371 31.7091 3.84955 31.7091H31.7768C32.7027 31.7091 33.5906 31.3413 34.2453 30.6866C34.9 30.0319 35.2677 29.144 35.2677 28.2182V21.2363C35.2677 20.3105 34.9 19.4226 34.2453 18.7679C33.5906 18.1132 32.7027 17.7454 31.7768 17.7454ZM23.0496 24.7273C23.0496 25.6912 22.2681 26.4727 21.3041 26.4727C20.3401 26.4727 19.5586 25.6912 19.5586 24.7273C19.5586 23.7633 20.3401 22.9818 21.3041 22.9818C22.2681 22.9818 23.0496 23.7633 23.0496 24.7273ZM30.0314 24.7273C30.0314 25.6912 29.2499 26.4727 28.2859 26.4727C27.3219 26.4727 26.5405 25.6912 26.5405 24.7273C26.5405 23.7633 27.3219 22.9818 28.2859 22.9818C29.2499 22.9818 30.0314 23.7633 30.0314 24.7273Z" fill="white"/>
</svg>
