<?xml version="1.0" standalone="no"?>
<!DOCTYPE svg PUBLIC "-//W3C//DTD SVG 20010904//EN"
 "http://www.w3.org/TR/2001/REC-SVG-20010904/DTD/svg10.dtd">
<svg version="1.0" xmlns="http://www.w3.org/2000/svg"
 width="112.000000pt" height="112.000000pt" viewBox="0 0 112.000000 112.000000"
 preserveAspectRatio="xMidYMid meet">
<metadata>
Created by potrace 1.14, written by Peter Selinger 2001-2017
</metadata>
<g transform="translate(0.000000,112.000000) scale(0.100000,-0.100000)"
fill="#000000" stroke="none">
<path d="M11 1087 c-33 -33 3 -68 63 -63 27 2 40 -2 47 -15 7 -15 66 -293 85
-404 3 -16 17 -91 32 -165 l27 -135 34 -11 34 -11 -26 -7 c-37 -9 -77 -66 -83
-118 -3 -32 2 -53 19 -83 28 -49 67 -70 132 -70 62 0 104 27 130 85 16 37 17
47 6 88 -14 53 -25 68 -66 94 -30 18 -28 18 190 18 193 -1 216 -2 189 -14 -90
-39 -110 -156 -40 -230 52 -55 142 -61 198 -12 77 66 70 181 -15 235 -28 18
-29 21 -11 21 30 0 40 16 53 80 6 30 12 64 14 75 3 11 8 38 12 60 11 62 13 71
41 215 14 74 28 150 31 168 10 64 26 62 -457 62 l-437 0 -13 59 c-7 32 -16 65
-21 72 -10 17 -152 22 -168 6z m1013 -241 c-2 -17 -7 -38 -9 -46 -5 -16 -14
-63 -19 -95 -3 -19 -26 -139 -30 -160 -1 -5 -8 -44 -16 -85 -7 -41 -17 -79
-21 -84 -4 -5 -141 -10 -304 -10 -254 -1 -296 1 -300 14 -3 13 -9 44 -31 160
-2 14 -11 59 -19 100 -8 41 -17 93 -21 115 -3 22 -9 56 -15 75 -5 19 -9 38 -9
41 0 3 180 6 400 6 l400 -1 -6 -30z m-608 -649 c36 -31 36 -73 0 -104 -44 -37
-108 -14 -119 44 -4 20 2 34 23 55 34 34 60 35 96 5z m518 2 c36 -28 36 -80 0
-108 -72 -57 -159 46 -92 109 28 26 58 26 92 -1z"/>
</g>
</svg>
